<svg width="1124" height="1124" viewBox="0 0 1124 1124" fill="none" xmlns="http://www.w3.org/2000/svg">
<path d="M731.556 938.383C718.481 939.679 37.8321 1007.2 12.3287 659.387C-13.1748 311.579 430.155 439.084 408.085 306.02C378.163 125.746 781.812 129.997 842.11 360.344C902.409 590.692 1022.71 492.397 1089.12 600.203C1119.93 650.2 1192.87 892.067 731.556 938.383Z" fill="#F2F0F0"/>
<path d="M527.361 355.005C436.647 345.532 341.826 397.407 310.944 494.16C297.985 534.592 276.836 559.24 256.516 574.259C228.24 595.162 185.112 598.454 185.112 598.454C185.112 601.746 185.241 604.934 185.41 607.901C190.593 702.502 259.354 663.703 299.955 662.731C341.826 661.785 468.5 454.259 548.795 449.256C629.089 444.254 679.928 618.929 685.954 531.559C691.979 444.189 618.126 364.478 527.361 355.005V355.005Z" fill="#F95D5D"/>
<path d="M682.999 490.608C668.005 420.629 603.65 362.975 527.36 355.005C437.386 345.609 343.497 396.474 311.748 491.619C314.709 496.532 318.611 500.812 323.229 504.215C323.229 504.215 346.724 386.923 484.881 371.502C623.037 356.08 673.124 458.625 682.999 490.608Z" fill="#E04646"/>
<path d="M638.873 584.808C638.873 584.808 565.434 614.004 570.786 532.44C548.756 559.512 521.438 564.501 521.438 564.501C521.438 564.501 540.877 632.018 505.11 642.566C469.343 653.115 402.966 616.868 427.031 564.812C469.719 472.543 589.81 485.334 607.46 495.533C625.111 505.731 593.75 579.3 638.873 584.808V584.808Z" fill="#DD3350" stroke="#191919" stroke-width="1.15"/>
<path d="M751.462 584.432C699.094 575.452 711.807 543.987 627.055 441.286C542.302 338.586 354.215 409.874 318.37 546.527C308.612 583.642 292.62 601.823 275.605 609.508C240.875 625.188 201.738 597.352 201.738 597.352C193.004 599.387 192.252 599.387 185.151 601.24C186.913 634.299 194.222 681.962 206.287 725.725L223.561 718.066L304.517 682.182L465.053 611.011C432.28 587.685 440.068 520.816 515.944 503.697C565.668 492.475 598.48 514.972 624.8 543.158C632.044 550.933 638.783 559.149 645.249 567.21C662.264 588.398 677.323 608.536 694.416 616.946C697.824 618.633 701.365 620.037 705.003 621.145C711.663 623.213 718.669 623.923 725.608 623.232C753.444 620.225 767.285 592.622 751.462 584.432Z" fill="#F95D5D"/>
<path opacity="0.67" d="M725.427 623.258C734.733 622.365 743.455 618.324 750.153 611.802C751.332 600.761 711.211 622.687 710.07 610.791C708.93 598.895 697.111 585.028 697.111 585.028C677.672 572.406 672.67 589.914 694.247 616.972C697.656 618.659 701.197 620.063 704.835 621.171C711.49 623.238 718.492 623.947 725.427 623.258V623.258Z" fill="#E04646"/>
<path opacity="0.67" d="M714.256 565.59C696.489 545.853 683.012 509.101 627.029 441.286C576.035 379.536 487.732 380.703 417.597 421.161C408.902 428.068 401.45 438.254 402.046 452.768C403.55 486.462 504.06 384.966 572.626 421.964C635.867 456.047 684.217 554.419 714.256 565.59Z" fill="#E04646"/>
<path d="M427.576 415.706C423.498 417.805 419.468 420.026 415.485 422.367" stroke="#191919" stroke-width="1.15" stroke-linecap="round"/>
<path d="M464.911 611.038C432.137 587.711 439.926 520.842 515.801 503.724C565.525 492.501 598.337 514.998 624.657 543.184C631.901 550.959 638.64 559.175 645.106 567.236C662.122 588.424 677.18 608.562 694.273 616.973C697.681 618.659 701.223 620.064 704.861 621.171C711.52 623.24 718.527 623.949 725.466 623.258C753.483 620.225 767.323 592.623 751.5 584.381C699.133 575.4 711.846 543.936 627.093 441.235C580.946 385.356 504.228 380.988 438.098 410.639" stroke="#191919" stroke-width="1.15" stroke-linecap="round"/>
<path d="M905.324 458.25C905.327 441.543 916.263 426.806 932.253 421.964C914.81 416.716 896.1 424.622 887.705 440.789C879.311 456.956 883.609 476.808 897.938 488.056L890.707 546.488H912.646L919.89 488.133C910.679 480.958 905.302 469.927 905.324 458.25V458.25Z" fill="#606060" stroke="#191919" stroke-width="1.15"/>
<path opacity="0.46" d="M596.808 459.999C596.808 459.999 656.679 499.032 654.463 536.73C647.621 548.263 615.145 469.343 574.26 466.66C533.374 463.977 563.296 441.131 596.808 459.999V459.999Z" fill="white"/>
<path d="M686.29 523.603C687.496 439.369 615.366 364.206 527.361 355.005C436.647 345.532 341.826 397.407 310.944 494.16C297.985 534.592 276.836 559.24 256.516 574.259C228.24 595.162 185.112 598.454 185.112 598.454C185.112 601.746 185.241 604.934 185.41 607.901" stroke="#191919" stroke-width="1.15"/>
<path d="M903.834 591.91V612.463C903.834 615.401 902.666 618.218 900.588 620.293C898.51 622.369 895.691 623.534 892.754 623.53H881.169L880.391 629.815H902.331L907.022 591.91L903.834 591.91Z" fill="#606060" stroke="#191919" stroke-width="1.15"/>
<path d="M958.094 623.529H936.841C930.729 623.529 925.774 618.574 925.774 612.462V591.909H907.022L902.331 629.814H962.176L961.347 623.037C960.294 623.365 959.197 623.531 958.094 623.529V623.529Z" fill="#191919" stroke="#191919" stroke-width="1.15"/>
<path d="M944.63 488.133C955.758 479.415 961.108 465.226 958.506 451.33C955.904 437.435 945.783 426.143 932.254 422.042C918.726 426.146 908.609 437.439 906.009 451.335C903.41 465.23 908.762 479.417 919.891 488.133L912.647 546.566H951.861L944.63 488.133Z" fill="#191919" stroke="#191919" stroke-width="1.15"/>
<path d="M951.86 546.527H616.052V591.884H867.458V612.437C867.458 618.549 872.413 623.504 878.525 623.504H892.78C895.717 623.508 898.536 622.343 900.614 620.267C902.692 618.191 903.86 615.375 903.86 612.437V591.91H925.8V612.463C925.8 618.575 930.755 623.53 936.867 623.53H958.12C959.223 623.532 960.319 623.366 961.372 623.038L951.86 546.527Z" fill="#FCC822"/>
<path opacity="0.67" d="M876.776 581.814C876.4 567.222 735.004 579.948 718.546 580.311C702.088 580.674 706.947 561.235 682.999 563.464C666.619 565.006 653.75 553.771 647.258 546.514H638.757C632.731 556.181 621.806 576.008 622.35 591.87H867.419V612.423C867.419 618.536 872.374 623.49 878.486 623.49H892.741C869.843 622.609 877.151 596.406 876.776 581.814V581.814Z" fill="#F78926"/>
<path fill-rule="evenodd" clip-rule="evenodd" d="M951.86 546.527H616.052V591.884H867.458V612.437C867.458 618.549 872.413 623.504 878.525 623.504H892.78C895.717 623.508 898.536 622.343 900.614 620.267C902.692 618.191 903.86 615.375 903.86 612.437V591.91H925.8V612.463C925.8 618.575 930.755 623.53 936.867 623.53H958.12C959.223 623.532 960.319 623.366 961.372 623.038L951.86 546.527Z" stroke="#191919" stroke-width="1.15"/>
<path d="M582.164 669.223C618.057 669.223 647.154 623.446 647.154 566.976C647.154 510.507 618.057 464.729 582.164 464.729C546.272 464.729 517.175 510.507 517.175 566.976C517.175 623.446 546.272 669.223 582.164 669.223Z" fill="#FCC822"/>
<g opacity="0.67">
<path d="M593.607 563.478C551.711 571.966 581.633 494.16 558.151 495.261C549.08 495.676 544.752 491.166 542.924 485.49C527.283 504.151 517.175 533.711 517.175 566.977C517.175 598.143 526.052 626.031 540.022 644.731C585.715 629.828 640.454 587.97 645.482 574.908C646.421 572.634 646.981 570.222 647.141 567.767C647.141 567.521 647.141 567.275 647.141 567.029C646.778 555.521 628.843 556.35 593.607 563.478V563.478Z" fill="#F78926"/>
<path d="M546.294 491.335C546.294 491.335 552.838 496.013 562 485.49C571.162 474.967 633.677 465.974 638.873 570.217C622.415 590.666 537.793 618.476 532.933 608.809C528.073 599.141 515.451 528.916 546.294 491.335Z" fill="#F78926"/>
</g>
<path fill-rule="evenodd" clip-rule="evenodd" d="M582.164 669.223C618.057 669.223 647.154 623.446 647.154 566.976C647.154 510.507 618.057 464.729 582.164 464.729C546.272 464.729 517.175 510.507 517.175 566.976C517.175 623.446 546.272 669.223 582.164 669.223Z" stroke="#191919" stroke-width="1.15"/>
<path opacity="0.67" d="M939.238 597.352C937.242 590.342 925.774 591.91 925.774 591.91V612.463C925.774 618.575 930.729 623.53 936.841 623.53H941.856C937.813 617.802 940.871 603.093 939.238 597.352Z" fill="#F78926"/>
<path d="M582.164 648.023C610.614 648.023 633.677 611.737 633.677 566.977C633.677 522.216 610.614 485.931 582.164 485.931C553.715 485.931 530.652 522.216 530.652 566.977C530.652 611.737 553.715 648.023 582.164 648.023Z" fill="#FCC822"/>
<path opacity="0.67" d="M593.607 563.477C551.724 571.965 581.62 494.198 558.164 495.261C541.81 508.829 530.652 535.849 530.652 566.976C530.652 597.611 541.46 624.281 557.4 638.057C585.702 625.564 614.627 605.84 631.37 591.015C632.919 583.096 633.692 575.045 633.677 566.976C633.677 564.047 633.573 561.145 633.379 558.294C624.45 557.957 611.244 559.927 593.607 563.477V563.477Z" fill="#F78926"/>
<path fill-rule="evenodd" clip-rule="evenodd" d="M582.165 648.023C610.614 648.023 633.677 611.737 633.677 566.977C633.677 522.216 610.614 485.931 582.165 485.931C553.715 485.931 530.652 522.216 530.652 566.977C530.652 611.737 553.715 648.023 582.165 648.023Z" stroke="#191919" stroke-width="1.15"/>
<path d="M256.49 574.26C237.557 543.741 218.974 526.959 205.056 531.028C189.505 535.538 183.025 564.994 185.371 607.901C185.203 604.882 185.099 601.746 185.073 598.454C185.086 598.454 228.214 595.163 256.49 574.26V574.26Z" fill="#191919" stroke="#191919" stroke-width="1.15"/>
<path d="M253.691 849.004C276.149 891.044 299.242 915.588 315.765 910.78C330.188 906.569 336.798 880.767 335.8 842.642C308.003 850.78 280.452 853.683 253.691 849.004H253.691Z" fill="#191919" stroke="#191919" stroke-width="1.15"/>
<path d="M645.068 567.184C603.599 567.3 552.242 606.864 506.406 617.387C489.17 621.339 475.058 618.268 464.859 610.985L304.374 682.208L206.144 725.751C207.077 729.103 208.036 732.481 209.021 735.885C221.799 779.673 237.531 818.823 253.691 849.004C280.452 853.682 308.015 850.78 335.8 842.641C479.645 800.563 629.374 618.45 704.822 621.171C690.295 580.557 669.34 567.184 645.068 567.184V567.184Z" fill="#F95D5D"/>
<path d="M240.836 710.382C237.052 644.679 316.905 587.102 321.299 520.091C326.482 440.069 398.522 371.528 479.192 355.653C405.066 365.295 336.357 414.513 310.892 494.16C297.933 534.592 276.784 559.24 256.464 574.26C228.188 595.163 185.06 598.454 185.06 598.454V601.227H184.93C185.008 602.886 185.125 604.597 185.241 606.32V607.863C185.449 611.75 185.773 615.314 186.187 618.722C189.812 654.874 196.44 690.66 206.002 725.712L223.276 718.053L240.836 710.382Z" fill="#E04646"/>
<path d="M458.742 779.713C443.93 782.655 304.27 832.741 253.691 749.713C245.449 736.196 241.561 723.108 240.836 710.33L206.144 725.751C207.077 729.103 208.036 732.481 209.021 735.885C221.799 779.674 237.531 818.823 253.691 849.005C280.452 853.683 308.015 850.78 335.8 842.642C376.919 830.603 418.53 807.108 458.742 779.713V779.713Z" fill="#E04646"/>
<path d="M253.691 849.004C418.893 877.89 614.795 617.892 704.822 621.171C690.295 580.557 669.34 567.184 645.068 567.184C603.599 567.3 552.242 606.864 506.406 617.387C489.17 621.34 475.058 618.268 464.859 610.985" stroke="#191919" stroke-width="1.15"/>
<path d="M335.8 842.642C336.811 880.767 330.189 906.569 315.765 910.78C287.398 919.048 239.618 840.802 209.021 735.833C178.425 630.865 176.624 539.244 204.978 530.976C218.896 526.907 237.492 543.689 256.439 574.234" stroke="#191919" stroke-width="1.15"/>
<path d="M170.302 810.778C181.236 807.702 181.217 773.63 170.26 734.675C159.303 695.721 141.557 666.635 130.623 669.711C119.689 672.786 119.708 706.858 130.665 745.813C141.622 784.767 159.368 813.853 170.302 810.778Z" fill="#191919" stroke="#191919" stroke-width="1.15"/>
<path opacity="0.34" d="M941.856 623.53H958.094C959.197 623.532 960.293 623.366 961.346 623.038L951.86 546.579H942.141C944.15 556.609 955.683 617.724 941.856 623.53H941.856Z" fill="#191919"/>
<path d="M644.199 613.914C620.627 620.225 599.244 647.802 605.646 669.417C632.212 649.979 656.342 634.428 677.064 626.652C672.152 619.836 661.539 609.274 644.199 613.914V613.914Z" fill="white" stroke="#191919" stroke-width="1.15"/>
<path d="M244.283 797.622C248.679 805.079 254.096 811.883 260.378 817.838" stroke="#191919" stroke-width="1.15" stroke-linecap="round"/>
<path d="M199.146 634.804C199.146 634.804 207.816 717.068 232.672 774.762" stroke="#191919" stroke-width="1.15" stroke-linecap="round"/>
<path d="M553.771 509.801C546.061 521.091 541.315 534.14 539.97 547.745" stroke="#191919" stroke-width="1.15" stroke-linecap="round"/>
<path d="M566.484 495.248C564.202 497.188 562.075 499.302 560.121 501.572" stroke="#191919" stroke-width="1.15" stroke-linecap="round"/>
<path d="M858.063 585.028C858.063 585.028 872.318 581.814 873.03 588.916C873.438 595.238 873.438 601.579 873.03 607.901" stroke="#191919" stroke-width="1.15" stroke-linecap="round"/>
<path opacity="0.46" d="M650.964 447.273C650.964 447.273 665.932 489.675 668.42 483.429C670.908 477.183 667.422 459.248 650.964 447.273Z" fill="white"/>
<path opacity="0.46" d="M539.97 455.736C539.97 455.736 533.931 472.699 520.894 469.213C507.857 465.727 515.218 445.447 539.97 452.587" fill="white"/>
<path d="M598.078 398.897C598.078 398.897 626.588 410.872 640.843 440.794" stroke="white" stroke-width="1.15" stroke-linecap="round"/>
<path opacity="0.63" d="M582.54 500.781C582.54 500.781 598.843 512.794 596.601 528.786C594.359 544.777 619.046 550.946 616.04 528.786C613.033 506.626 578.951 488.198 582.54 500.781Z" fill="white"/>
<path opacity="0.63" d="M704.822 553.214C704.822 553.214 800.836 547.214 805.319 555.909C809.803 564.605 729.768 559.68 730.157 566.445C730.546 573.209 685.111 559.913 704.822 553.214Z" fill="white"/>
<path opacity="0.63" d="M830.382 554.133C830.382 554.133 821.039 553.33 821.415 559.148C821.79 564.967 853.955 565.006 853.579 559.758C853.203 554.509 830.382 554.133 830.382 554.133V554.133Z" fill="white"/>
<path d="M520.855 716.537C477.961 750.438 414.98 793.76 355.705 810.361" stroke="white" stroke-width="1.15" stroke-linecap="round"/>
<path d="M552.644 690.217C548.121 694.105 542.963 698.549 537.235 703.292" stroke="white" stroke-width="1.15" stroke-linecap="round"/>
<path d="M573.469 671.439C573.469 671.439 569.361 675.327 562 681.975" stroke="white" stroke-width="1.15" stroke-linecap="round"/>
<path opacity="0.46" d="M488.133 629.387C488.133 629.387 539.387 622.26 570.061 602.251C600.735 582.242 631.772 570.229 638.886 580.921C646.001 591.612 462.319 672.71 488.133 629.387V629.387Z" fill="white"/>
<path opacity="0.46" d="M650.964 576.864C650.964 576.864 667.629 573.534 669.107 580.856C670.584 588.177 638.692 583.577 650.964 576.864Z" fill="white"/>
<path d="M448.206 617.569C439.239 609.133 431.062 596.575 430.893 578.821C430.517 539.167 462.319 516.722 462.319 516.722" stroke="#191919" stroke-width="1.15" stroke-linecap="round"/>
<path d="M471.559 632.161C467.378 630.594 463.367 628.61 459.584 626.238" stroke="#191919" stroke-width="1.15" stroke-linecap="round"/>
</svg>
