<svg width="380" height="400" viewBox="0 0 380 400" fill="none" xmlns="http://www.w3.org/2000/svg">
<path fill-rule="evenodd" clip-rule="evenodd" d="M195.738 89.4901C200.346 84.0814 203.464 77.4529 202.943 70.0255C201.442 48.625 171.651 53.3328 165.857 64.1339C160.062 74.9351 160.75 102.333 168.24 104.263C171.226 105.033 177.589 103.147 184.065 99.2443L180 128H204L195.738 89.4901Z" fill="#B28B67"/>
<path fill-rule="evenodd" clip-rule="evenodd" d="M179.536 51.6853C182.699 51.1665 191.216 50.8099 192.787 50.8101C193.79 50.8101 194.878 51.0395 195.473 50.1178C195.959 49.3631 195.781 48.0867 195.926 47.2109C196.095 46.1935 196.335 45.1892 196.577 44.1874C197.267 41.3369 198.31 38.625 199.769 36.0788C202.507 31.3019 206.519 27.5601 211.583 25.3828C217.176 22.9787 223.504 22.4282 229.52 22.9158C235.957 23.4375 241.784 25.5626 247.862 27.5624C253.654 29.4681 259.72 30.2182 265.778 29.2876C271.882 28.35 276.493 25.042 281.641 21.9023C286.911 18.688 292.934 16.5857 299.165 17.069C304.98 17.5203 310.341 19.9216 315.15 23.1295C319.649 26.1308 323.362 29.7418 325.458 34.824C327.713 40.2909 327.711 46.2918 324.003 51.1233C318.628 58.1265 308.65 59.9376 300.349 59.7575C295.547 59.6537 290.832 58.7772 286.299 57.1828C280.253 55.0564 275.029 51.4523 269.373 48.528C266.719 47.1558 263.975 46.0288 261.099 45.217C258.309 44.4289 255.56 44.0675 253.034 45.7533C250.361 47.5367 247.966 49.2885 244.908 50.4049C241.974 51.476 238.867 52.075 235.742 52.0509C229.661 52.0039 223.667 50.1093 217.761 48.8402C212.946 47.8056 207.793 46.7743 202.883 47.769C200.834 48.1841 197.841 49.041 197.101 51.1702C209.556 53.4274 214.447 68.8302 210.936 80.1372C209.041 86.24 197.65 93.3742 193.221 90.1658C190.415 88.1333 192.119 85.4648 193.221 83.7033C195.332 80.3299 196.055 75.9967 192.148 73.648C188.778 71.6224 185.235 76.4327 185.168 76.4274C184.242 76.3544 176.24 71.8285 170.726 65.2241C165.287 65.5466 164.461 61.96 165.76 59.0269C167.059 56.0938 175.166 52.4024 179.536 51.6853Z" fill="#191847"/>
<path d="M214 385C171.474 385 137 352.093 137 311.5C137 270.907 171.474 238 214 238C256.526 238 291 270.907 291 311.5C291 352.093 256.526 385 214 385Z" fill="#C5CFD6"/>
<path fill-rule="evenodd" clip-rule="evenodd" d="M68.4908 373.66C81.3036 345.302 90.5696 320.608 94.289 307.58C100.657 285.273 105.502 265.643 106.727 258.313C109.647 240.832 84.2647 239.814 80.9098 248.502C75.8319 261.651 66.9671 304.853 56.3154 370.107L68.4908 373.66ZM217.112 284.664C205.356 280.017 164.188 265.475 144.333 261.361C138.627 260.179 133.097 259.081 127.898 258.088C112.444 255.138 104.437 283.017 119.321 285.16C156.388 290.494 208.937 296.003 213.434 296.622C219.737 297.488 224.5 287.584 217.112 284.664Z" fill="#B28B67"/>
<path fill-rule="evenodd" clip-rule="evenodd" d="M118.413 250.416L182 218.047V211H174.438C112.92 226.676 81.4846 236.722 80.1313 241.138C80.1168 241.185 80.1034 241.233 80.0913 241.281C80.0603 241.321 80.0299 241.362 80 241.403C67.8085 258.17 60.5071 340.027 58.1106 346.156L81.4723 349.641C90.4087 316.503 119 293.418 118.241 253.729C118.446 252.565 118.497 251.461 118.413 250.416Z" fill="#1F28CF"/>
<path fill-rule="evenodd" clip-rule="evenodd" d="M176.717 269.64C182.535 268.476 187.893 267.436 192.477 266.632C222.091 261.438 230.726 245.586 225.62 211H171.058C162.145 213.56 115.826 232.985 91.7934 243.316C75.8874 250.154 80.9015 274.804 89.909 281.219C89.958 281.613 90.1201 281.88 90.4087 282C138.863 302.083 177.195 291.545 190 294.912L195.923 276.228L176.717 269.64Z" fill="#2B44FF"/>
<path fill-rule="evenodd" clip-rule="evenodd" d="M213.092 281.694C216.267 281.997 218.521 282.474 219.853 283.124C221.474 283.915 223.707 285.338 226.553 287.395C225.636 289.275 217.395 306.173 201.829 338.088C196.831 337.282 194.851 335.374 195.888 332.367C196.925 329.359 197.761 326.849 198.397 324.835L199.385 296.15C199.404 295.598 199.867 295.166 200.419 295.185C200.428 295.185 200.438 295.185 200.447 295.186L204.86 295.463C207.367 293.434 209.021 291.598 209.823 289.955C210.473 288.62 210.833 286.514 210.902 283.637L210.902 283.637C210.929 282.532 211.845 281.659 212.95 281.685C212.997 281.686 213.045 281.689 213.092 281.694Z" fill="#E4E4E4"/>
<path fill-rule="evenodd" clip-rule="evenodd" d="M74.3219 368.402C75.4406 371.388 76 373.623 76 375.106C76 376.909 75.6996 379.54 75.0988 383C73.0068 383 54.2062 383 18.6969 383C17.2313 378.155 18.0773 375.539 21.2352 375.152C24.393 374.766 27.0163 374.417 29.105 374.106L55.32 362.419C55.8244 362.194 56.4157 362.421 56.6405 362.925C56.6444 362.934 56.6481 362.942 56.6517 362.951L58.3368 367.039C61.2601 368.403 63.6356 369.085 65.4633 369.085C66.9483 369.085 68.999 368.485 71.6155 367.286L71.6155 367.285C72.6196 366.825 73.8067 367.266 74.267 368.27C74.2869 368.313 74.3052 368.357 74.3219 368.402Z" fill="#E4E4E4"/>
<path fill-rule="evenodd" clip-rule="evenodd" d="M120 183.617L83.7654 167.704C77.418 161.379 71.2886 156.572 65.3773 153.282C63.6097 152.719 60.5899 152.549 63.8118 157.255C67.0338 161.961 70.2111 167.056 68.9237 168.705C67.6363 170.355 63.907 168.534 62.4337 171.216C61.4514 173.004 67.7377 175.143 81.2925 177.633L108.43 198.439L120 183.617ZM266.492 188L246 192.066C266.608 230.471 277.66 250.826 279.155 253.13C282.52 258.315 279.38 267.817 278.221 272.821C285.496 274.515 282.627 263.565 291.833 265.851C300.236 267.938 307.361 273.293 315.196 266.071C316.159 265.183 316.865 262.407 313.58 260.984C305.397 257.437 293.308 250.796 291.348 248.218C288.674 244.702 280.389 224.63 266.492 188Z" fill="#B28B67"/>
<path fill-rule="evenodd" clip-rule="evenodd" d="M190.305 111.332L181.658 109.849C162.824 128.119 155.138 172.012 142.586 177.823C130.719 183.316 113.896 178 93.9002 170.823L87.7764 184.505C105.945 204.161 144.651 220.767 160.34 211.287C185.424 196.13 191.214 141.994 190.305 111.332Z" fill="#DB2721"/>
<path fill-rule="evenodd" clip-rule="evenodd" d="M228 220C193.328 220 167.824 220 151.489 220C147.992 220 148.651 214.952 149.157 212.404C154.989 183.004 177.759 151.312 177.759 109.461L199.828 106C218.083 135.358 224.395 171.505 228 220Z" fill="#DDE3E9"/>
<path fill-rule="evenodd" clip-rule="evenodd" d="M235.631 190.233C251.229 218.368 264.339 238.623 274.963 251L291 247.859C280.669 183.791 250.753 136.504 201.252 106H197.269L192.514 106C172.701 173.537 167.239 218.537 176.128 241H245C243.91 224.563 240.417 207.181 235.631 190.233H235.631Z" fill="#FF4133"/>
</svg>
